<svg viewBox="0 0 50 30" fill="none" xmlns="http://www.w3.org/2000/svg">
<path d="M41.7402 8.94824C42.1712 8.79611 42.6251 9.07134 42.7197 9.50195H42C41.6254 9.50195 41.2763 9.39604 40.9766 9.2168L41.7402 8.94824ZM40.4512 1.47949C40.537 1.30273 40.7847 1.24004 40.9395 1.40234L44.6494 5.30859L42.499 6.74316C42.2147 6.93294 42.3495 7.37594 42.6914 7.37598C42.8406 7.37591 42.9873 7.33555 43.1152 7.25879L45.2715 5.96387L48.417 9.27637C48.142 9.41869 47.831 9.50195 47.5 9.50195H43.2295C43.1293 8.73155 42.3382 8.20688 41.5742 8.47656L40.5225 8.84668C40.1988 8.4914 40.0001 8.02037 40 7.50195V6.38965C40.2374 6.17335 40.5201 6.01068 40.8281 5.91504L41.6973 5.64551C41.7403 5.63215 41.7823 5.6137 41.8223 5.59277L42.4102 5.28613C42.686 5.14131 42.8556 4.85248 42.8496 4.54102L42.8447 4.27246C42.8339 3.72515 42.2158 3.42378 41.7744 3.73047C41.3329 4.03741 40.8062 4.20906 40.2695 4.21973C40.1745 4.22159 40.0827 4.19959 40 4.16016V2.8877C40.1739 2.73242 40.3776 2.60983 40.6016 2.53027L40.8916 2.42676C41.2189 2.31008 41.2417 1.85639 40.9277 1.70703L40.4512 1.47949ZM44.5488 0.00195312C44.6806 0.124032 44.7536 0.299886 44.7402 0.483398C44.701 1.01883 44.5001 1.53546 44.1699 1.95996C43.8398 2.3843 44.1081 3.01954 44.6543 3.05957L44.9209 3.0791C45.2317 3.10189 45.529 2.9465 45.6885 2.67871L46.0283 2.10938C46.0513 2.07068 46.0703 2.02952 46.0859 1.9873L46.4023 1.13281C46.5336 0.778345 46.7546 0.464068 47.043 0.219727C47.0731 0.194205 47.1078 0.172699 47.1445 0.158203L47.5342 0.00292969C48.3065 0.0158009 48.9701 0.467191 49.292 1.11816L48.9209 2.01562C48.6625 2.63896 48.9542 3.30886 49.5 3.59766V7.50195C49.4999 7.93245 49.3623 8.32995 49.1309 8.65625L47.584 7.02051L48.7266 5.87891C48.8242 5.78129 48.8241 5.62303 48.7266 5.52539C48.6289 5.42788 48.4706 5.4278 48.373 5.52539L47.2402 6.65723L41.8896 1.00293C41.7357 0.839753 41.812 0.594784 41.9932 0.518555L42.1943 1.00781C42.3268 1.32906 42.7821 1.33038 42.916 1.00977L43.0342 0.725586C43.1536 0.439117 43.3441 0.191432 43.583 0.00195312H44.5488ZM42.0596 4.14062C42.1813 4.05624 42.3419 4.14406 42.3447 4.28223L42.3506 4.55078C42.3528 4.6729 42.2858 4.78594 42.1777 4.84277L41.5898 5.15039C41.577 5.15711 41.5637 5.16365 41.5498 5.16797L40.6797 5.4375C40.4381 5.5125 40.2099 5.62215 40 5.75977V4.6875C40.0902 4.70925 40.1839 4.72159 40.2793 4.71973C40.9156 4.70712 41.5378 4.50338 42.0596 4.14062ZM49.5 2.00195V2.96582C49.3322 2.76204 49.2717 2.4752 49.3828 2.20703L49.4961 1.93164C49.4969 1.95501 49.5 1.97838 49.5 2.00195ZM46.5449 0.00195312C46.2763 0.273888 46.0669 0.599884 45.9336 0.959961L45.6172 1.81348C45.6121 1.82723 45.6061 1.84091 45.5986 1.85352L45.2588 2.42285C45.1963 2.52787 45.0799 2.58889 44.958 2.58008L44.6904 2.56055C44.5528 2.55017 44.4737 2.38449 44.5645 2.26758C44.9548 1.76584 45.1927 1.15445 45.2393 0.519531C45.2524 0.338643 45.2184 0.16206 45.1484 0.00195312H46.5449ZM40.0605 1.84766L40.4736 2.04395L40.4336 2.05957C40.2811 2.11378 40.136 2.18334 40 2.2666V2.00195C40 1.9417 40.0036 1.88214 40.0088 1.82324L40.0605 1.84766ZM41.9902 0.00195312C41.4517 0.0777089 41.1489 0.67599 41.3896 1.15137L41.3018 1.05859C41.0214 0.763657 40.6215 0.746123 40.3232 0.914062C40.6783 0.368226 41.2914 0.00529353 41.9902 0.00195312ZM42.8857 0.00195312C42.7598 0.163464 42.6524 0.340908 42.5723 0.533203L42.5557 0.573242L42.3223 0.00585938L42.2715 0.00195312H42.8857Z" fill="#F4F3EF"/>
<path d="M44.417 17.3359C44.6453 17.1079 44.9946 17.051 45.2832 17.1953L45.7979 17.4531C46.2126 17.6607 46.5281 18.0248 46.6748 18.4648L47.0195 19.5H42.252L43.9766 17.7764L44.417 17.3359ZM43.3047 12.4189C43.5051 12.8196 43.8307 13.1444 44.2314 13.3447L44.2617 13.3594C44.5693 13.5132 44.9316 13.5132 45.2393 13.3594C45.6628 13.1474 45.994 12.7874 46.1699 12.3477L47.1094 10H47.5C47.9061 10 48.2832 10.1221 48.5986 10.3301L47.4463 11.2275C47.3375 11.3122 47.318 11.4692 47.4023 11.5781C47.4871 11.687 47.644 11.7066 47.7529 11.6221L48.9844 10.6631C49.3038 11.0175 49.5 11.4853 49.5 12V12.0479L47.1963 13.0723C46.4235 13.4157 45.9249 14.1827 45.9248 15.0283C45.925 16.0845 46.6963 16.9829 47.7402 17.1436L49.5 17.4141V17.5C49.5 17.8791 49.3922 18.2321 49.209 18.5342L47.7529 17.4023C47.644 17.3181 47.487 17.3375 47.4023 17.4463C47.3178 17.5551 47.3377 17.712 47.4463 17.7969L48.8994 18.9268C48.5488 19.2707 48.073 19.4852 47.5459 19.4971L47.1494 18.3066C46.9607 17.7408 46.5549 17.2727 46.0215 17.0059L45.5068 16.748C45.0257 16.5075 44.4439 16.6022 44.0635 16.9824L41.5889 19.4561C41.2504 19.3853 40.9443 19.229 40.6924 19.0107L41.585 18.2676C41.6909 18.1792 41.7054 18.0211 41.6172 17.915C41.5289 17.8092 41.3717 17.7949 41.2656 17.8828L40.3574 18.6387C40.1342 18.3173 40.0016 17.9283 40 17.5078L42.5488 17.0449C43.1429 16.9368 43.575 16.4193 43.5752 15.8154V15.4043C43.575 14.35 42.8426 13.4369 41.8135 13.208L40 12.8037V12C40 11.7017 40.0665 11.4193 40.1836 11.165L41.2617 12.0898C41.3665 12.1797 41.5244 12.1672 41.6143 12.0625C41.7041 11.9577 41.6917 11.7998 41.5869 11.71L40.4502 10.7354C40.817 10.2864 41.3751 10 42 10H42.0957L43.3047 12.4189ZM41.7051 13.6953C42.5055 13.8733 43.075 14.5843 43.0752 15.4043V15.8154C43.075 16.1776 42.8153 16.4878 42.459 16.5527L40 16.999V13.3154L41.7051 13.6953ZM49.5 16.9072L47.8164 16.6494C47.0164 16.5263 46.425 15.8377 46.4248 15.0283C46.4249 14.3803 46.8072 13.7925 47.3994 13.5293L49.5 12.5947V16.9072ZM45.7061 12.1621C45.5756 12.4881 45.3296 12.7549 45.0156 12.9121C44.8488 12.9955 44.6522 12.9955 44.4854 12.9121L44.4551 12.8975C44.1511 12.7455 43.904 12.4992 43.752 12.1953L42.6543 10H46.5713L45.7061 12.1621Z" fill="#D75103"/>
<path d="M8.44922 5.9502C7.64637 5.95021 6.94687 6.4966 6.75195 7.27539L6.19531 9.5H7.5C8.60457 9.5 9.5 8.60457 9.5 7.5V5.95215C9.48353 5.95106 9.46694 5.9502 9.4502 5.9502H8.44922ZM6.48438 4.83984C6.76629 5.32779 6.68645 5.94521 6.29004 6.3457L6.27637 6.36035C5.92628 6.71379 5.39932 6.82544 4.93555 6.64551L0 4.72852V6.08398L4.17188 7.09961C4.82848 7.2595 5.287 7.85364 5.27344 8.5293C5.26666 8.86345 5.06294 9.16237 4.75488 9.29199L4.26074 9.5H5.68066L6.2666 7.1543C6.51708 6.1528 7.41686 5.45021 8.44922 5.4502H9.4502C9.46689 5.4502 9.48346 5.4515 9.5 5.45215V4.98145C8.41873 4.86581 7.47667 4.16401 7.06641 3.13867L5.81152 0H3.6875L6.48438 4.83984ZM0 7.5C0 8.60457 0.895431 9.5 2 9.5H2.9707L4.56152 8.83105C4.68713 8.77798 4.77052 8.65586 4.77344 8.51953C4.78228 8.07814 4.48266 7.68939 4.05371 7.58496L0 6.59766V7.5ZM2 0C0.895431 0 8.05332e-09 0.895431 0 2V4.19238L5.11621 6.17969C5.39447 6.28761 5.71086 6.21987 5.9209 6.00781L5.93555 5.99316C6.17298 5.75293 6.22064 5.38339 6.05176 5.09082L3.11035 0H2ZM7.53125 2.95215C7.86541 3.78755 8.62383 4.36428 9.5 4.47754V2C9.5 0.895431 8.60457 8.05319e-09 7.5 0H6.35059L7.53125 2.95215Z" fill="#365943"/>
<path d="M39.5 11.8C39.5 12.9046 38.6046 13.8 37.5 13.8H36.65V18.55V19.5H32.85V18.55V13.8H30V12C30 10.8954 30.8954 10 32 10H39.5V11.8Z" fill="#FFBA00"/>
<path d="M19.5 1.8C19.5 2.90457 18.6046 3.8 17.5 3.8H16.65V8.55V9.5H12.85V8.55V3.8H10V2C10 0.895429 10.8954 0 12 0H19.5V1.8Z" fill="#FFBA00"/>
<path d="M29.5 21.8C29.5 22.9046 28.6046 23.8 27.5 23.8H26.65V28.55V29.5H22.85V28.55V23.8H20V22C20 20.8954 20.8954 20 22 20H29.5V21.8Z" fill="#FFBA00"/>
<path d="M25.2242 0H29.5V7.5C29.5 8.60457 28.6046 9.5 27.5 9.5H25.2242V6.01417H24.2758V9.5H20V4.27578C20 1.91433 21.9143 0 24.2758 0V3.47087H25.2242V0Z" fill="#FFBA00"/>
<path d="M5.22422 20H9.5V27.5C9.5 28.6046 8.60457 29.5 7.5 29.5H5.22422V26.0142H4.27578V29.5H0V24.2758C0 21.9143 1.91433 20 4.27578 20V23.4709H5.22422V20Z" fill="#FFBA00"/>
<path d="M39.5 2.85H35.7C35.1753 2.85 34.75 3.27533 34.75 3.8H38.55V5.7H35.75C35.1977 5.7 34.75 6.14772 34.75 6.7V7.6H39.5V8.5C39.5 9.05229 39.0523 9.5 38.5 9.5H30V3C30 1.34315 31.3431 0 33 0H39.5V2.85Z" fill="#FFBA00"/>
<path d="M39.5 22.85H35.7C35.1753 22.85 34.75 23.2753 34.75 23.8H38.55V25.7H35.75C35.1977 25.7 34.75 26.1477 34.75 26.7V27.6H39.5V28.5C39.5 29.0523 39.0523 29.5 38.5 29.5H30V23C30 21.3431 31.3431 20 33 20H39.5V22.85Z" fill="#FFBA00"/>
<path d="M19.5 12.85H15.7C15.1753 12.85 14.75 13.2753 14.75 13.8H18.55V15.7H15.75C15.1977 15.7 14.75 16.1477 14.75 16.7V17.6H19.5V18.5C19.5 19.0523 19.0523 19.5 18.5 19.5H10V13C10 11.3431 11.3431 10 13 10H19.5V12.85Z" fill="#FFBA00"/>
<path d="M7.17846 14.3904C7.17846 14.3904 9.5 14.1656 9.5 17.0726C9.5 18.4661 9.16399 19.5 6.1246 19.5H0V10H6.1246C8.29341 10 9.33199 10.7043 9.33199 12.5173C9.33199 14.8699 7.17846 14.3904 7.17846 14.3904ZM2.85 12.6522V14.0308H4.55145C4.75 14.0308 4.91801 14.0158 5.02492 13.9409C5.14711 13.8659 5.17765 13.6711 5.17765 13.3565C5.17765 13.0118 5.14711 12.817 5.02492 12.7571C4.91801 12.6972 4.75 12.6522 4.55145 12.6522H2.85ZM2.85 15.5292V16.9227H4.55145C4.75 16.9227 4.91801 16.8927 5.02492 16.8178C5.14711 16.7579 5.17765 16.5481 5.17765 16.2334C5.17765 15.9038 5.14711 15.709 5.02492 15.6491C4.91801 15.5741 4.75 15.5292 4.55145 15.5292H2.85Z" fill="#FFBA00"/>
<path d="M24.2917 13.9559C24.2917 14.7644 29.5 14.4612 29.5 16.8579C29.5 18.1862 28.6271 19.5 24.7427 19.5C21.8331 19.5 20 18.1862 20 16.8579V15.7H22.85C22.85 15.7 23.6203 16.175 24.275 16.175C24.566 16.175 25.2083 15.8906 25.2083 15.5441C25.2083 14.7067 20.1891 15.1687 20.1891 12.6421C20.1891 11.3138 20.8729 10 24.7573 10C27.6669 10 29.3254 11.3138 29.3254 12.6421C29.3254 13.4362 29.2584 13.8 29.2584 13.8H25.7C25.7 13.7856 25.4119 13.4217 24.7573 13.4217C24.4663 13.4217 24.2917 13.6094 24.2917 13.9559Z" fill="#FFBA00"/>
<path d="M11.104 21.1911C11.8448 20.3922 13.065 20 14.75 20C16.435 20 17.6407 20.3922 18.3815 21.1911C19.1369 21.9901 19.5 23.1667 19.5 24.75C19.5 26.3333 19.1369 27.5245 18.3815 28.3234C17.6407 29.1078 16.435 29.5 14.75 29.5C13.065 29.5 11.8448 29.1078 11.104 28.3234C10.3631 27.5245 10 26.3333 10 24.75C10 23.1667 10.3631 21.9901 11.104 21.1911ZM15.1131 23.6315C15.0405 23.5008 14.9098 23.4427 14.75 23.4427C14.5757 23.4427 14.474 23.5008 14.3868 23.6315C14.3142 23.7622 14.2852 24.1254 14.2852 24.75C14.2852 25.3746 14.3142 25.7378 14.3868 25.883C14.474 25.9992 14.5757 26.0573 14.75 26.0573C14.9098 26.0573 15.0405 25.9992 15.1131 25.883C15.1713 25.7378 15.2148 25.3746 15.2148 24.75C15.2148 24.1254 15.1713 23.7622 15.1131 23.6315Z" fill="#FFBA00"/>
<path d="M44.75 20V26.65H47.5C48.6046 26.65 49.5 27.5454 49.5 28.65V29.5H40V22C40 20.8954 40.8954 20 42 20H44.75Z" fill="#FFBA00"/>
</svg>
