<svg width="20" height="20" viewBox="0 0 20 20" fill="none" xmlns="http://www.w3.org/2000/svg">
<path d="M11.7402 8.94629C12.1712 8.79415 12.6251 9.06939 12.7197 9.5H12C11.6254 9.5 11.2763 9.39409 10.9766 9.21484L11.7402 8.94629ZM10.4512 1.47754C10.537 1.30078 10.7847 1.23809 10.9395 1.40039L14.6494 5.30664L12.499 6.74121C12.2147 6.93099 12.3495 7.37398 12.6914 7.37402C12.8406 7.37395 12.9873 7.3336 13.1152 7.25684L15.2715 5.96191L18.417 9.27441C18.142 9.41674 17.831 9.5 17.5 9.5H13.2295C13.1293 8.7296 12.3382 8.20493 11.5742 8.47461L10.5225 8.84473C10.1988 8.48944 10.0001 8.01842 10 7.5V6.3877C10.2374 6.1714 10.5201 6.00873 10.8281 5.91309L11.6973 5.64355C11.7403 5.6302 11.7823 5.61174 11.8223 5.59082L12.4102 5.28418C12.686 5.13936 12.8556 4.85053 12.8496 4.53906L12.8447 4.27051C12.8339 3.7232 12.2158 3.42183 11.7744 3.72852C11.3329 4.03546 10.8062 4.20711 10.2695 4.21777C10.1745 4.21963 10.0827 4.19764 10 4.1582V2.88574C10.1739 2.73046 10.3776 2.60788 10.6016 2.52832L10.8916 2.4248C11.2189 2.30813 11.2417 1.85443 10.9277 1.70508L10.4512 1.47754ZM14.5488 0C14.6806 0.122079 14.7536 0.297933 14.7402 0.481445C14.701 1.01688 14.5001 1.53351 14.1699 1.95801C13.8398 2.38235 14.1081 3.01758 14.6543 3.05762L14.9209 3.07715C15.2317 3.09993 15.529 2.94455 15.6885 2.67676L16.0283 2.10742C16.0513 2.06873 16.0703 2.02757 16.0859 1.98535L16.4023 1.13086C16.5336 0.776392 16.7546 0.462115 17.043 0.217773C17.0731 0.192252 17.1078 0.170746 17.1445 0.15625L17.5342 0.000976562C18.3065 0.0138477 18.9701 0.465237 19.292 1.11621L18.9209 2.01367C18.6625 2.63701 18.9542 3.30691 19.5 3.5957V7.5C19.4999 7.9305 19.3623 8.328 19.1309 8.6543L17.584 7.01855L18.7266 5.87695C18.8242 5.77934 18.8241 5.62108 18.7266 5.52344C18.6289 5.42592 18.4706 5.42585 18.373 5.52344L17.2402 6.65527L11.8896 1.00098C11.7357 0.8378 11.812 0.59283 11.9932 0.516602L12.1943 1.00586C12.3268 1.3271 12.7821 1.32843 12.916 1.00781L13.0342 0.723633C13.1536 0.437164 13.3441 0.189478 13.583 0H14.5488ZM12.0596 4.13867C12.1813 4.05429 12.3419 4.14211 12.3447 4.28027L12.3506 4.54883C12.3528 4.67094 12.2858 4.78399 12.1777 4.84082L11.5898 5.14844C11.577 5.15516 11.5637 5.1617 11.5498 5.16602L10.6797 5.43555C10.4381 5.51055 10.2099 5.62019 10 5.75781V4.68555C10.0902 4.7073 10.1839 4.71964 10.2793 4.71777C10.9156 4.70516 11.5378 4.50143 12.0596 4.13867ZM19.5 2V2.96387C19.3322 2.76009 19.2717 2.47325 19.3828 2.20508L19.4961 1.92969C19.4969 1.95306 19.5 1.97643 19.5 2ZM16.5449 0C16.2763 0.271935 16.0669 0.597931 15.9336 0.958008L15.6172 1.81152C15.6121 1.82527 15.6061 1.83895 15.5986 1.85156L15.2588 2.4209C15.1963 2.52592 15.0799 2.58693 14.958 2.57812L14.6904 2.55859C14.5528 2.54821 14.4737 2.38254 14.5645 2.26562C14.9548 1.76389 15.1927 1.1525 15.2393 0.517578C15.2524 0.336689 15.2184 0.160107 15.1484 0H16.5449ZM10.0605 1.8457L10.4736 2.04199L10.4336 2.05762C10.2811 2.11182 10.136 2.18139 10 2.26465V2C10 1.93974 10.0036 1.88019 10.0088 1.82129L10.0605 1.8457ZM11.9902 0C11.4517 0.0757558 11.1489 0.674037 11.3896 1.14941L11.3018 1.05664C11.0214 0.761704 10.6215 0.74417 10.3232 0.912109C10.6783 0.366273 11.2914 0.0033404 11.9902 0ZM12.8857 0C12.7598 0.161511 12.6524 0.338955 12.5723 0.53125L12.5557 0.571289L12.3223 0.00390625L12.2715 0H12.8857Z" fill="#F4F3EF"/>
<path d="M14.417 17.3359C14.6453 17.1079 14.9946 17.051 15.2832 17.1953L15.7979 17.4531C16.2126 17.6607 16.5281 18.0248 16.6748 18.4648L17.0195 19.5H12.252L13.9766 17.7764L14.417 17.3359ZM13.3047 12.4189C13.5051 12.8196 13.8307 13.1444 14.2314 13.3447L14.2617 13.3594C14.5693 13.5132 14.9316 13.5132 15.2393 13.3594C15.6628 13.1474 15.994 12.7874 16.1699 12.3477L17.1094 10H17.5C17.9061 10 18.2832 10.1221 18.5986 10.3301L17.4463 11.2275C17.3375 11.3122 17.318 11.4692 17.4023 11.5781C17.4871 11.687 17.644 11.7066 17.7529 11.6221L18.9844 10.6631C19.3038 11.0175 19.5 11.4853 19.5 12V12.0479L17.1963 13.0723C16.4235 13.4157 15.9249 14.1827 15.9248 15.0283C15.925 16.0845 16.6963 16.9829 17.7402 17.1436L19.5 17.4141V17.5C19.5 17.8791 19.3922 18.2321 19.209 18.5342L17.7529 17.4023C17.644 17.3181 17.487 17.3375 17.4023 17.4463C17.3178 17.5551 17.3377 17.712 17.4463 17.7969L18.8994 18.9268C18.5488 19.2707 18.073 19.4852 17.5459 19.4971L17.1494 18.3066C16.9607 17.7408 16.5549 17.2727 16.0215 17.0059L15.5068 16.748C15.0257 16.5075 14.4439 16.6022 14.0635 16.9824L11.5889 19.4561C11.2504 19.3853 10.9443 19.229 10.6924 19.0107L11.585 18.2676C11.6909 18.1792 11.7054 18.0211 11.6172 17.915C11.5289 17.8092 11.3717 17.7949 11.2656 17.8828L10.3574 18.6387C10.1342 18.3173 10.0016 17.9283 10 17.5078L12.5488 17.0449C13.1429 16.9368 13.575 16.4193 13.5752 15.8154V15.4043C13.575 14.35 12.8426 13.4369 11.8135 13.208L10 12.8037V12C10 11.7017 10.0665 11.4193 10.1836 11.165L11.2617 12.0898C11.3665 12.1797 11.5244 12.1672 11.6143 12.0625C11.7041 11.9577 11.6917 11.7998 11.5869 11.71L10.4502 10.7354C10.817 10.2864 11.3751 10 12 10H12.0957L13.3047 12.4189ZM11.7051 13.6953C12.5055 13.8733 13.075 14.5843 13.0752 15.4043V15.8154C13.075 16.1776 12.8153 16.4878 12.459 16.5527L10 16.999V13.3154L11.7051 13.6953ZM19.5 16.9072L17.8164 16.6494C17.0164 16.5263 16.425 15.8377 16.4248 15.0283C16.425 14.3803 16.8072 13.7925 17.3994 13.5293L19.5 12.5947V16.9072ZM15.7061 12.1621C15.5756 12.4881 15.3296 12.7549 15.0156 12.9121C14.8488 12.9955 14.6522 12.9955 14.4854 12.9121L14.4551 12.8975C14.1511 12.7455 13.904 12.4992 13.752 12.1953L12.6543 10H16.5713L15.7061 12.1621Z" fill="#D75103"/>
<path d="M8.44922 5.9502C7.64637 5.95021 6.94687 6.4966 6.75195 7.27539L6.19531 9.5H7.5C8.60457 9.5 9.5 8.60457 9.5 7.5V5.95215C9.48353 5.95106 9.46694 5.9502 9.4502 5.9502H8.44922ZM6.48438 4.83984C6.76629 5.32779 6.68645 5.94521 6.29004 6.3457L6.27637 6.36035C5.92628 6.71379 5.39932 6.82544 4.93555 6.64551L0 4.72852V6.08398L4.17188 7.09961C4.82848 7.2595 5.287 7.85364 5.27344 8.5293C5.26665 8.86345 5.06294 9.16237 4.75488 9.29199L4.26074 9.5H5.68066L6.2666 7.1543C6.51708 6.1528 7.41686 5.45021 8.44922 5.4502H9.4502C9.46689 5.4502 9.48346 5.4515 9.5 5.45215V4.98145C8.41873 4.86581 7.47667 4.16401 7.06641 3.13867L5.81152 0H3.6875L6.48438 4.83984ZM0 7.5C0 8.60457 0.895431 9.5 2 9.5H2.9707L4.56152 8.83105C4.68713 8.77798 4.77052 8.65586 4.77344 8.51953C4.78228 8.07814 4.48266 7.68939 4.05371 7.58496L0 6.59766V7.5ZM2 0C0.895431 0 0 0.895431 0 2V4.19238L5.11621 6.17969C5.39447 6.28761 5.71086 6.21987 5.9209 6.00781L5.93555 5.99316C6.17298 5.75293 6.22064 5.38339 6.05176 5.09082L3.11035 0H2ZM7.53125 2.95215C7.86541 3.78755 8.62383 4.36428 9.5 4.47754V2C9.5 0.895431 8.60457 8.05319e-09 7.5 0H6.35059L7.53125 2.95215Z" fill="#365943"/>
<path d="M5.22422 10H9.5V17.5C9.5 18.6046 8.60457 19.5 7.5 19.5H5.22422V16.0142H4.27578V19.5H0V12C0 10.8954 0.895431 10 2 10H4.27578V13.4709H5.22422V10Z" fill="#FFBA00"/>
</svg>

